<svg width="159" height="53" viewBox="0 0 159 53" fill="none" xmlns="http://www.w3.org/2000/svg">
<path d="M2.27273 0.81819H9.125V9.05115C9.125 9.86933 9.26562 10.5384 9.54688 11.0582C9.83665 11.5781 10.3182 11.9617 10.9915 12.2088C11.6733 12.456 12.6023 12.5796 13.7784 12.5796C13.9915 12.5796 14.3366 12.5753 14.8139 12.5668C15.2997 12.5497 15.8239 12.5284 16.3864 12.5028C16.9489 12.4688 17.4645 12.4304 17.9332 12.3878C18.4105 12.3367 18.7472 12.2813 18.9432 12.2216V17.5909C18.7216 17.6676 18.3551 17.7358 17.8438 17.7955C17.3324 17.8466 16.7827 17.8935 16.1946 17.9361C15.6151 17.9702 15.0952 18 14.6349 18.0256C14.1747 18.0426 13.8892 18.0511 13.7784 18.0511C11.4773 18.0511 9.46165 17.723 7.73153 17.0668C6.00142 16.4105 4.65909 15.4176 3.70455 14.0881C2.75 12.7585 2.27273 11.0796 2.27273 9.05115V0.81819ZM17.6136 0.81819H24.517V27H17.6136V0.81819Z" fill="black"/>
<path d="M29.4102 27V0.81819H48.2795V6.54546H36.5181V11.0455H47.3079V16.7727H36.5181V21.2727H48.2283V27H29.4102Z" fill="black"/>
<path d="M51.8047 27V0.81819H63.1058C65.049 0.81819 66.7493 1.20171 68.2067 1.96876C69.6641 2.7358 70.7976 3.81393 71.6072 5.20313C72.4169 6.59234 72.8217 8.21592 72.8217 10.0739C72.8217 11.9489 72.4041 13.5725 71.5689 14.9446C70.7422 16.3168 69.5788 17.3736 68.0788 18.1151C66.5874 18.8565 64.8445 19.2273 62.8501 19.2273H56.1001V13.7046H61.4183C62.2536 13.7046 62.9652 13.5597 63.5533 13.2699C64.1499 12.9716 64.6058 12.5497 64.9212 12.0043C65.245 11.4588 65.407 10.8153 65.407 10.0739C65.407 9.32387 65.245 8.68467 64.9212 8.15626C64.6058 7.61933 64.1499 7.21024 63.5533 6.92899C62.9652 6.63921 62.2536 6.49433 61.4183 6.49433H58.9126V27H51.8047Z" fill="black"/>
<path d="M75.4297 0.81819H84.2763L90.3615 15.6477H90.6683L96.7536 0.81819H105.6V27H98.6456V11.8636H98.4411L92.6115 26.7955H88.4183L82.5888 11.7614H82.3842V27H75.4297V0.81819Z" fill="black"/>
<path d="M134.332 13.9091C134.332 16.8239 133.766 19.2827 132.632 21.2855C131.499 23.2798 129.969 24.7926 128.043 25.8239C126.116 26.8466 123.969 27.358 121.599 27.358C119.213 27.358 117.057 26.8423 115.131 25.8111C113.213 24.7713 111.688 23.2543 110.554 21.26C109.429 19.2571 108.866 16.8068 108.866 13.9091C108.866 10.9943 109.429 8.53978 110.554 6.54546C111.688 4.54262 113.213 3.02984 115.131 2.00711C117.057 0.975861 119.213 0.460236 121.599 0.460236C123.969 0.460236 126.116 0.975861 128.043 2.00711C129.969 3.02984 131.499 4.54262 132.632 6.54546C133.766 8.53978 134.332 10.9943 134.332 13.9091ZM127.02 13.9091C127.02 12.3409 126.811 11.0199 126.393 9.94603C125.984 8.86364 125.375 8.04546 124.565 7.49149C123.764 6.92899 122.776 6.64774 121.599 6.64774C120.423 6.64774 119.43 6.92899 118.621 7.49149C117.82 8.04546 117.21 8.86364 116.793 9.94603C116.384 11.0199 116.179 12.3409 116.179 13.9091C116.179 15.4773 116.384 16.8026 116.793 17.885C117.21 18.9588 117.82 19.777 118.621 20.3395C119.43 20.8935 120.423 21.1705 121.599 21.1705C122.776 21.1705 123.764 20.8935 124.565 20.3395C125.375 19.777 125.984 18.9588 126.393 17.885C126.811 16.8026 127.02 15.4773 127.02 13.9091Z" fill="black"/>
<path d="M147.9 27.358C145.837 27.358 144.005 27.0043 142.402 26.2969C140.809 25.581 139.556 24.5966 138.644 23.3438C137.732 22.0909 137.272 20.6506 137.263 19.0227H144.422C144.431 19.5256 144.584 19.9773 144.882 20.3778C145.189 20.7699 145.607 21.0767 146.135 21.2983C146.664 21.5199 147.269 21.6307 147.951 21.6307C148.607 21.6307 149.186 21.5156 149.689 21.2855C150.192 21.0469 150.584 20.7188 150.865 20.3011C151.147 19.8835 151.283 19.4063 151.275 18.8693C151.283 18.3409 151.121 17.8722 150.789 17.4631C150.465 17.054 150.009 16.7344 149.421 16.5043C148.833 16.2742 148.155 16.1591 147.388 16.1591H144.729V11.25H147.388C148.096 11.25 148.718 11.135 149.255 10.9048C149.8 10.6747 150.222 10.3551 150.52 9.94603C150.827 9.53694 150.976 9.06819 150.968 8.53978C150.976 8.02842 150.853 7.57671 150.597 7.18467C150.341 6.79262 149.983 6.4858 149.523 6.26421C149.071 6.04262 148.547 5.93183 147.951 5.93183C147.303 5.93183 146.723 6.04688 146.212 6.277C145.709 6.50711 145.313 6.82671 145.023 7.2358C144.733 7.6449 144.584 8.11365 144.576 8.64205H137.775C137.783 7.03978 138.222 5.62501 139.091 4.39774C139.969 3.17046 141.171 2.20739 142.696 1.50853C144.222 0.809667 145.973 0.460236 147.951 0.460236C149.885 0.460236 151.594 0.788361 153.077 1.44461C154.569 2.10086 155.732 3.00427 156.567 4.15484C157.411 5.29688 157.828 6.60512 157.82 8.07955C157.837 9.54546 157.334 10.7472 156.311 11.6847C155.297 12.6222 154.01 13.1761 152.451 13.3466V13.5511C154.564 13.7813 156.154 14.429 157.219 15.4943C158.284 16.5511 158.809 17.8807 158.792 19.483C158.8 21.0171 158.34 22.3764 157.411 23.5611C156.49 24.7457 155.208 25.6747 153.563 26.348C151.926 27.0213 150.039 27.358 147.9 27.358Z" fill="black"/>
<path d="M0.0078125 36.3636H4.25284V44.5483H4.375L9.93324 36.3636H13.5369V52H9.2919V43.7848H9.20028L3.55043 52H0.0078125V36.3636Z" fill="black"/>
<path d="M20.7749 36.3636H24.8672V41.2805C24.8672 41.7692 24.9512 42.1687 25.1191 42.4792C25.2922 42.7897 25.5798 43.0188 25.9819 43.1664C26.3891 43.314 26.9439 43.3878 27.6463 43.3878C27.7736 43.3878 27.9797 43.3852 28.2647 43.3802C28.5549 43.37 28.8679 43.3573 29.2038 43.342C29.5398 43.3216 29.8477 43.2987 30.1277 43.2733C30.4127 43.2427 30.6138 43.2096 30.7308 43.174V46.3807C30.5985 46.4265 30.3796 46.4672 30.0742 46.5028C29.7688 46.5334 29.4405 46.5614 29.0893 46.5868C28.7432 46.6072 28.4327 46.625 28.1578 46.6403C27.883 46.6505 27.7125 46.6555 27.6463 46.6555C26.272 46.6555 25.0682 46.4596 24.035 46.0677C23.0017 45.6757 22.2 45.0827 21.63 44.2887C21.0599 43.4947 20.7749 42.492 20.7749 41.2805V36.3636ZM29.9368 36.3636H34.0597V52H29.9368V36.3636Z" fill="black"/>
<path d="M36.9819 52V36.3636H48.2511V39.7841H41.227V42.4716H47.6709V45.8921H41.227V48.5796H48.2206V52H36.9819Z" fill="black"/>
<path d="M50.3564 52V36.3636H57.1057C58.2662 36.3636 59.2817 36.5927 60.1521 37.0508C61.0225 37.5089 61.6994 38.1528 62.183 38.9824C62.6665 39.8121 62.9083 40.7817 62.9083 41.8913C62.9083 43.0111 62.6589 43.9808 62.1601 44.8003C61.6663 45.6197 60.9716 46.2509 60.0757 46.6937C59.185 47.1365 58.1441 47.358 56.953 47.358H52.9218V44.0597H56.0979C56.5967 44.0597 57.0218 43.9731 57.373 43.8001C57.7293 43.6219 58.0016 43.37 58.1899 43.0442C58.3833 42.7185 58.48 42.3342 58.48 41.8913C58.48 41.4434 58.3833 41.0617 58.1899 40.7461C58.0016 40.4254 57.7293 40.1811 57.373 40.0131C57.0218 39.8401 56.5967 39.7536 56.0979 39.7536H54.6015V52H50.3564Z" fill="black"/>
<path d="M64.4658 36.3636H69.7492L73.3834 45.2202H73.5667L77.2009 36.3636H82.4843V52H78.3309V42.9602H78.2087L74.7272 51.8778H72.2229L68.7414 42.8992H68.6192V52H64.4658V36.3636Z" fill="black"/>
<path d="M99.6438 44.1818C99.6438 45.9226 99.3053 47.391 98.6284 48.5872C97.9514 49.7782 97.0378 50.6817 95.8874 51.2976C94.7371 51.9084 93.4544 52.2138 92.0394 52.2138C90.6142 52.2138 89.3265 51.9058 88.1761 51.29C87.0309 50.669 86.1198 49.763 85.4428 48.5719C84.771 47.3758 84.435 45.9124 84.435 44.1818C84.435 42.4411 84.771 40.9752 85.4428 39.7841C86.1198 38.588 87.0309 37.6845 88.1761 37.0737C89.3265 36.4578 90.6142 36.1499 92.0394 36.1499C93.4544 36.1499 94.7371 36.4578 95.8874 37.0737C97.0378 37.6845 97.9514 38.588 98.6284 39.7841C99.3053 40.9752 99.6438 42.4411 99.6438 44.1818ZM95.2766 44.1818C95.2766 43.2453 95.1519 42.4563 94.9025 41.815C94.6582 41.1686 94.2943 40.6799 93.8107 40.3491C93.3323 40.0131 92.7418 39.8452 92.0394 39.8452C91.337 39.8452 90.744 40.0131 90.2605 40.3491C89.782 40.6799 89.4181 41.1686 89.1687 41.815C88.9244 42.4563 88.8022 43.2453 88.8022 44.1818C88.8022 45.1184 88.9244 45.9099 89.1687 46.5563C89.4181 47.1976 89.782 47.6863 90.2605 48.0222C90.744 48.3531 91.337 48.5185 92.0394 48.5185C92.7418 48.5185 93.3323 48.3531 93.8107 48.0222C94.2943 47.6863 94.6582 47.1976 94.9025 46.5563C95.1519 45.9099 95.2766 45.1184 95.2766 44.1818Z" fill="black"/>
<path d="M107.746 52.2138C106.515 52.2138 105.42 52.0026 104.463 51.5801C103.512 51.1525 102.763 50.5646 102.219 49.8164C101.674 49.0682 101.399 48.208 101.394 47.2358H105.67C105.675 47.5361 105.766 47.8059 105.945 48.0451C106.128 48.2792 106.377 48.4625 106.693 48.5948C107.008 48.7272 107.37 48.7933 107.777 48.7933C108.169 48.7933 108.515 48.7246 108.815 48.5872C109.116 48.4447 109.35 48.2487 109.518 47.9993C109.686 47.7499 109.767 47.4649 109.762 47.1442C109.767 46.8286 109.67 46.5487 109.472 46.3043C109.278 46.06 109.006 45.8691 108.655 45.7317C108.304 45.5943 107.899 45.5256 107.441 45.5256H105.853V42.5938H107.441C107.863 42.5938 108.235 42.525 108.556 42.3876C108.881 42.2502 109.133 42.0593 109.312 41.815C109.495 41.5707 109.584 41.2907 109.579 40.9752C109.584 40.6698 109.51 40.4 109.357 40.1658C109.205 39.9317 108.991 39.7485 108.716 39.6161C108.446 39.4838 108.133 39.4176 107.777 39.4176C107.39 39.4176 107.044 39.4863 106.739 39.6238C106.438 39.7612 106.202 39.9521 106.029 40.1964C105.855 40.4407 105.766 40.7207 105.761 41.0362H101.7C101.705 40.0793 101.967 39.2344 102.486 38.5014C103.01 37.7685 103.728 37.1933 104.639 36.7759C105.55 36.3586 106.596 36.1499 107.777 36.1499C108.932 36.1499 109.953 36.3458 110.839 36.7378C111.729 37.1297 112.424 37.6692 112.923 38.3564C113.427 39.0384 113.676 39.8197 113.671 40.7003C113.681 41.5758 113.381 42.2935 112.77 42.8533C112.164 43.4132 111.396 43.7441 110.464 43.8459V43.968C111.727 44.1055 112.676 44.4923 113.312 45.1286C113.949 45.7597 114.262 46.5537 114.251 47.5107C114.256 48.4269 113.982 49.2387 113.427 49.9462C112.877 50.6537 112.111 51.2085 111.129 51.6106C110.151 52.0127 109.024 52.2138 107.746 52.2138Z" fill="black"/>
<path d="M129.035 52H124.79V39.7536H123.293C122.799 39.7536 122.374 39.8223 122.018 39.9597C121.662 40.092 121.387 40.3007 121.193 40.5858C121.005 40.8657 120.911 41.2297 120.911 41.6776C120.911 42.1204 121.005 42.4792 121.193 42.7541C121.387 43.029 121.662 43.23 122.018 43.3573C122.374 43.4794 122.799 43.5405 123.293 43.5405H126.469V46.8388H122.438C121.252 46.8388 120.211 46.6428 119.315 46.2509C118.419 45.859 117.722 45.2787 117.223 44.5101C116.73 43.7415 116.483 42.7974 116.483 41.6776C116.483 40.568 116.724 39.6161 117.208 38.8221C117.692 38.0281 118.369 37.4198 119.239 36.9973C120.114 36.5749 121.13 36.3636 122.285 36.3636H129.035V52ZM119.873 44.8232H124.392L120.575 52H115.964L119.873 44.8232Z" fill="black"/>
<path d="M131.044 52V36.3636H135.289V42.4716H140.909V36.3636H145.154V52H140.909V45.8921H135.289V52H131.044Z" fill="black"/>
<path d="M147.169 52V36.3636H158.439V39.7841H151.414V42.4716H157.858V45.8921H151.414V48.5796H158.408V52H147.169Z" fill="black"/>
</svg>
